<svg width="52" height="60" viewBox="0 0 52 60" fill="none" xmlns="http://www.w3.org/2000/svg">
<path d="M2.66583 31.5711C2.66583 33.4041 2.52042 34.0011 2.14649 34.441C1.73033 34.8189 1.19006 35.0279 0.630035 35.0275L0.77545 36.0749C1.64368 36.0868 2.48613 35.7775 3.14363 35.2056C3.49739 34.7706 3.76065 34.2681 3.91768 33.7283C4.07472 33.1884 4.12232 32.6222 4.05766 32.0634V25.1295H2.66583V31.5292V31.5711Z" fill="#4E4E4E"/>
<path d="M13.0457 30.7449C13.0457 31.5305 13.0457 32.2323 13.108 32.8398H11.872L11.7889 31.5933C11.5304 32.0344 11.1606 32.3985 10.7173 32.6487C10.274 32.8989 9.77287 33.0262 9.2649 33.0178C8.06005 33.0178 6.62668 32.358 6.62668 29.6661V25.1937H8.0185V29.3833C8.0185 30.8392 8.46513 31.8133 9.72193 31.8133C9.9805 31.8161 10.237 31.7668 10.4764 31.6683C10.7159 31.5698 10.9334 31.4241 11.1162 31.2397C11.2991 31.0554 11.4436 30.836 11.5413 30.5946C11.6389 30.3531 11.6878 30.0944 11.685 29.8337V25.1413H13.0768V30.7031L13.0457 30.7449Z" fill="#4E4E4E"/>
<path d="M15.6839 27.6855C15.6839 26.7114 15.6839 25.9154 15.6216 25.1926H16.868L16.9303 26.5019C17.208 26.0289 17.6078 25.6407 18.087 25.3788C18.5663 25.1169 19.107 24.991 19.6516 25.0146C21.5005 25.0146 22.8923 26.5752 22.8923 28.9005C22.8923 31.6447 21.22 33.0063 19.4127 33.0063C18.9502 33.0271 18.4901 32.9272 18.077 32.7162C17.664 32.5052 17.3119 32.1902 17.055 31.8018V35.9914H15.6839V27.7169V27.6855ZM17.055 29.7279C17.0587 29.918 17.0796 30.1073 17.1173 30.2935C17.2351 30.7586 17.5034 31.1708 17.8796 31.4648C18.2559 31.7588 18.7186 31.918 19.1946 31.917C20.6591 31.917 21.5212 30.7125 21.5212 28.9633C21.5212 27.4341 20.7111 26.1248 19.2466 26.1248C18.667 26.1727 18.1246 26.4321 17.7212 26.8544C17.3177 27.2767 17.0808 27.8328 17.055 28.4187V29.7279Z" fill="#4E4E4E"/>
<path d="M25.3721 25.1855L27.0444 29.6999C27.221 30.2026 27.4079 30.8101 27.5326 31.2605C27.678 30.7996 27.8338 30.2131 28.0208 29.6684L29.5372 25.1855H31.0017L28.9244 30.6321C27.8857 33.2506 27.2521 34.6017 26.2966 35.4187C25.8152 35.862 25.2285 36.1723 24.5931 36.3195L24.2504 35.1464C24.6946 34.9992 25.107 34.7682 25.4656 34.4656C25.9723 34.0491 26.3745 33.518 26.6393 32.9154C26.696 32.811 26.7346 32.6977 26.7536 32.5802C26.7418 32.4538 26.7102 32.3301 26.6601 32.2136L23.8349 25.1646H25.3514L25.3721 25.1855Z" fill="#4E4E4E"/>
<path d="M34.6966 22.9883V25.1878H36.6909V26.2352H34.6966V30.362C34.6966 31.3047 34.9667 31.8493 35.7353 31.8493C36.0083 31.8539 36.2807 31.8222 36.5455 31.7551L36.6078 32.8025C36.2107 32.9412 35.7918 33.0051 35.3718 32.991C35.0936 33.0086 34.815 32.9653 34.5551 32.864C34.2951 32.7628 34.0599 32.606 33.8657 32.4045C33.4426 31.8338 33.2496 31.1228 33.3256 30.4144V26.2248H32.1415V25.1774H33.3464V23.313L34.6966 22.9883Z" fill="#4E4E4E"/>
<path d="M39.2547 29.2577C39.2265 29.6129 39.2752 29.9701 39.3973 30.3045C39.5193 30.6389 39.712 30.9426 39.9619 31.1945C40.2117 31.4465 40.5129 31.6408 40.8445 31.7639C41.1761 31.887 41.5303 31.9361 41.8826 31.9076C42.5951 31.9237 43.3029 31.7881 43.9599 31.5096L44.1988 32.557C43.3926 32.8919 42.5257 33.0525 41.6541 33.0284C41.1459 33.0634 40.6363 32.9873 40.1601 32.8051C39.6839 32.6229 39.2525 32.339 38.8953 31.9728C38.5381 31.6067 38.2637 31.167 38.0909 30.6839C37.9181 30.2007 37.8509 29.6856 37.8941 29.1739C37.8941 26.8696 39.2547 25.0471 41.4775 25.0471C43.9703 25.0471 44.5935 27.2467 44.5935 28.6502C44.6068 28.8664 44.6068 29.0833 44.5935 29.2996H39.2236L39.2547 29.2577ZM43.3263 28.2103C43.3664 27.9302 43.3465 27.6448 43.2679 27.3732C43.1894 27.1016 43.054 26.8501 42.8709 26.6357C42.6879 26.4213 42.4613 26.249 42.2066 26.1303C41.9519 26.0117 41.675 25.9495 41.3944 25.9479C40.8237 25.9895 40.289 26.2446 39.8951 26.6631C39.5012 27.0816 39.2766 27.6334 39.2651 28.2103H43.3263Z" fill="#4E4E4E"/>
<path d="M46.7053 27.5674C46.7053 26.6666 46.7053 25.8915 46.643 25.1793H47.8894V26.6771H47.9517C48.0826 26.2148 48.3529 25.8051 48.7251 25.5047C49.0974 25.2044 49.5531 25.0285 50.0291 25.0012C50.1601 24.9839 50.2928 24.9839 50.4238 25.0012V26.3105C50.265 26.2919 50.1047 26.2919 49.946 26.3105C49.4745 26.3289 49.0258 26.5198 48.6836 26.8475C48.3415 27.1751 48.1293 27.6172 48.0868 28.0911C48.0479 28.3054 48.0271 28.5226 48.0244 28.7405V32.8149H46.6534V27.5778L46.7053 27.5674Z" fill="#4E4E4E"/>
<path d="M46.0954 4.14775C46.138 4.85141 45.972 5.55194 45.6184 6.1601C45.2649 6.76828 44.7398 7.25655 44.1101 7.56274C43.4804 7.86892 42.7746 7.97914 42.0825 7.87937C41.3905 7.7796 40.7435 7.47435 40.2241 7.0025C39.7047 6.53067 39.3363 5.91359 39.1659 5.22988C38.9955 4.54617 39.0308 3.82679 39.2673 3.16337C39.5037 2.49996 39.9307 1.92254 40.4937 1.50468C41.0568 1.08681 41.7304 0.847419 42.4288 0.816992C42.8868 0.791582 43.3452 0.857708 43.7776 1.01157C44.2101 1.16543 44.6082 1.40399 44.9489 1.71353C45.2897 2.02307 45.5664 2.39748 45.7631 2.81523C45.9599 3.23299 46.0728 3.68584 46.0954 4.14775Z" fill="#767677"/>
<path d="M25.557 45.1675C16.209 45.1675 7.99309 41.7844 3.74492 36.7883C5.39322 41.2829 8.3674 45.1604 12.2671 47.8989C16.1668 50.6374 20.805 52.1054 25.557 52.1054C30.3092 52.1054 34.9472 50.6374 38.847 47.8989C42.7467 45.1604 45.7208 41.2829 47.3692 36.7883C43.1314 41.7844 34.9466 45.1675 25.557 45.1675Z" fill="#F37726"/>
<path d="M25.557 12.679C34.9051 12.679 43.1211 16.0621 47.3692 21.0582C45.7208 16.5636 42.7467 12.6861 38.847 9.9476C34.9472 7.20909 30.3092 5.74103 25.557 5.74103C20.805 5.74103 16.1668 7.20909 12.2671 9.9476C8.3674 12.6861 5.39322 16.5636 3.74492 21.0582C7.99309 16.0516 16.1675 12.679 25.557 12.679Z" fill="#F37726"/>
<path d="M12.6883 54.8902C12.7432 55.7765 12.5351 56.6592 12.0907 57.4258C11.6462 58.1924 10.9855 58.8083 10.1927 59.1949C9.39996 59.5816 8.51099 59.7214 7.6391 59.5968C6.76719 59.4721 5.95184 59.0885 5.29691 58.4948C4.64198 57.9012 4.17713 57.1243 3.96158 56.2633C3.74604 55.4023 3.78955 54.4961 4.08658 53.6601C4.38361 52.8241 4.92071 52.0962 5.62944 51.5691C6.33819 51.0421 7.18648 50.7397 8.06624 50.7005C8.64256 50.6695 9.21931 50.7532 9.76355 50.9469C10.3078 51.1407 10.8088 51.4406 11.238 51.8297C11.6673 52.2188 12.0163 52.6893 12.2651 53.2144C12.514 53.7396 12.6578 54.309 12.6883 54.8902Z" fill="#9E9E9E"/>
<path d="M4.80734 11.5404C4.30363 11.5544 3.80705 11.418 3.38006 11.1482C2.95306 10.8784 2.61471 10.4873 2.40755 10.0241C2.2004 9.56085 2.13368 9.04621 2.2158 8.54487C2.29792 8.04353 2.52521 7.57786 2.86907 7.20644C3.21295 6.83501 3.65805 6.57441 4.14841 6.4574C4.63875 6.34039 5.15247 6.3722 5.62495 6.54883C6.09743 6.72546 6.50757 7.03902 6.80378 7.45008C7.10001 7.86114 7.26909 8.35135 7.28976 8.85906C7.30945 9.54556 7.0598 10.2122 6.59503 10.7142C6.13026 11.2162 5.48786 11.5131 4.80734 11.5404Z" fill="#616262"/>
</svg>
