<svg width="56" height="56" viewBox="0 0 56 56" fill="none" xmlns="http://www.w3.org/2000/svg">
<path d="M28 55.9216C43.4207 55.9216 55.9217 43.4207 55.9217 28C55.9217 12.5793 43.4207 0.0783386 28 0.0783386C12.5793 0.0783386 0.0783539 12.5793 0.0783539 28C0.0783539 43.4207 12.5793 55.9216 28 55.9216Z" fill="#75AADB"/>
<path d="M37.9174 37.1449H40.9231V39.4872H36.334L28.7304 28.0538H24.678V37.1449H28.6409V39.4872H18.6667V37.1449H22.0928V16.9974L18.6667 16.5756V14.359C19.9638 14.6551 21.0909 14.8615 22.5043 14.8615C24.6333 14.8615 26.8071 14.359 28.9361 14.359C33.0689 14.359 36.9066 16.2436 36.9066 20.8474C36.9066 24.4102 34.7775 26.6718 31.4766 27.632L37.9174 37.1449ZM24.678 25.7923L26.8518 25.8372C32.1565 25.9179 34.1961 23.8718 34.1961 21.1436C34.1961 17.9577 31.8971 16.7013 28.9808 16.7013C27.6032 16.7013 26.1809 16.8269 24.678 16.9974V25.7923Z" fill="white"/>
</svg>
